<?xml version="1.0" encoding="UTF-8"?>
<!DOCTYPE svg PUBLIC "-//W3C//DTD SVG 1.1//EN" "http://www.w3.org/Graphics/SVG/1.1/DTD/svg11.dtd">
<svg xmlns="http://www.w3.org/2000/svg" version="1.1" width="8500px" height="5154px" style="shape-rendering:geometricPrecision; text-rendering:geometricPrecision; image-rendering:optimizeQuality; fill-rule:evenodd; clip-rule:evenodd" xmlns:xlink="http://www.w3.org/1999/xlink">
<g><path style="opacity:0.998" fill="#fefffe" d="M 6639.5,35.5 C 6671.46,31.6049 6701.8,36.7715 6730.5,51C 6765.58,72.6123 6785.41,104.112 6790,145.5C 6791.11,162.917 6790.44,180.251 6788,197.5C 6770.42,282.162 6741.09,362.495 6700,438.5C 6643.34,545.207 6579.68,647.207 6509,744.5C 6462.91,807.598 6414.91,869.264 6365,929.5C 6265.41,1045.96 6164.41,1161.29 6062,1275.5C 5901.74,1452.43 5740.74,1628.77 5579,1804.5C 5565.44,1818.74 5555.11,1835.07 5548,1853.5C 5542.15,1876.46 5542.15,1899.46 5548,1922.5C 5581.74,2092.88 5614.08,2263.55 5645,2434.5C 5648.57,2453.02 5652.9,2471.35 5658,2489.5C 5706.9,2451.69 5761.07,2441.86 5820.5,2460C 5916.83,2492.84 5975.67,2559 5997,2658.5C 6006.11,2715.62 5989.94,2764.12 5948.5,2804C 5887.97,2861.53 5827.14,2918.7 5766,2975.5C 5755.71,2988.88 5752.38,3003.88 5756,3020.5C 5786.21,3176.36 5815.71,3332.36 5844.5,3488.5C 5844.83,3489.17 5845.17,3489.83 5845.5,3490.5C 5874.26,3471.13 5905.93,3458.97 5940.5,3454C 5974.44,3451.39 6006.77,3457.39 6037.5,3472C 6128.53,3513.1 6179.69,3583.6 6191,3683.5C 6192.79,3721.45 6181.79,3755.12 6158,3784.5C 6148.2,3795.3 6138.03,3805.8 6127.5,3816C 6105.86,3835.97 6084.53,3856.3 6063.5,3877C 6030.6,3908.57 5997.1,3939.4 5963,3969.5C 5946.45,3987.04 5940.78,4007.71 5946,4031.5C 5994.36,4286.95 6043.36,4542.29 6093,4797.5C 6097.83,4821.17 6093.83,4843.17 6081,4863.5C 6065.92,4880.91 6049.75,4897.41 6032.5,4913C 5960.29,4984.71 5888.63,5056.87 5817.5,5129.5C 5740.42,5015.02 5664.59,4899.69 5590,4783.5C 5460.61,4580.43 5331.61,4377.1 5203,4173.5C 5092.66,4000.8 4980.32,3829.47 4866,3659.5C 4742.3,3477.1 4612.96,3298.76 4478,3124.5C 4440.74,3077.65 4403.24,3030.98 4365.5,2984.5C 4041.54,3269.14 3717.21,3553.3 3392.5,3837C 3372.42,3854.74 3350.42,3869.74 3326.5,3882C 3288.02,3907.7 3273.52,3943.53 3283,3989.5C 3333.33,4237.64 3379.83,4486.47 3422.5,4736C 3422.11,4752.5 3416.94,4767.34 3407,4780.5C 3365.24,4826.6 3322.4,4871.77 3278.5,4916C 3277.55,4916.62 3276.72,4916.45 3276,4915.5C 3102.2,4690.73 2928.03,4466.23 2753.5,4242C 2746.28,4236.95 2738.28,4234.95 2729.5,4236C 2702.96,4243.74 2676.29,4251.07 2649.5,4258C 2635.92,4260.85 2622.25,4263.18 2608.5,4265C 2598.83,4265.67 2589.17,4265.67 2579.5,4265C 2562.3,4260.14 2554.3,4248.64 2555.5,4230.5C 2559.55,4187.31 2569.71,4145.64 2586,4105.5C 2589.44,4091.79 2586.77,4079.46 2578,4068.5C 2570.13,4060.96 2561.96,4053.79 2553.5,4047C 2337.17,3881.17 2121.83,3714 1907.5,3545.5C 1954.72,3499.11 2002.72,3453.61 2051.5,3409C 2060.7,3402.99 2070.87,3400.16 2082,3400.5C 2093.6,3401.22 2105.1,3402.72 2116.5,3405C 2368.07,3451.85 2619.73,3498.18 2871.5,3544C 2888.29,3544.41 2902.79,3538.91 2915,3527.5C 2966.47,3458.69 3019.47,3391.02 3074,3324.5C 3169.42,3209.07 3267.09,3095.4 3367,2983.5C 3478.37,2859.8 3589.37,2735.8 3700,2611.5C 3747.13,2559.37 3794.63,2507.53 3842.5,2456C 3668.02,2316.17 3489.02,2182.51 3305.5,2055C 3105.23,1917.52 2902.57,1783.52 2697.5,1653C 2368.32,1445.25 2039.99,1236.25 1712.5,1026C 1710.98,1024.99 1709.31,1024.49 1707.5,1024.5C 1707.28,1023.32 1707.61,1022.32 1708.5,1021.5C 1782.01,948.487 1855.35,875.32 1928.5,802C 1946.5,784.667 1964.5,767.333 1982.5,750C 1991.82,745.002 2001.82,742.502 2012.5,742.5C 2263.03,785.755 2513.03,831.922 2762.5,881C 2776.71,883.902 2791.04,884.902 2805.5,884C 2823.02,882.235 2838.36,875.568 2851.5,864C 2875.67,837.167 2899.83,810.333 2924,783.5C 2954.67,751.5 2985.33,719.5 3016,687.5C 3060.67,640.506 3114.84,624.34 3178.5,639C 3252.39,658.563 3307.89,701.73 3345,768.5C 3368.12,810.573 3375.46,855.24 3367,902.5C 3364.87,909.895 3362.54,917.228 3360,924.5C 3350.88,944.562 3341.38,964.395 3331.5,984C 3460.36,1009.09 3589.36,1033.42 3718.5,1057C 3745.11,1061.72 3771.77,1066.05 3798.5,1070C 3816.37,1071.38 3832.7,1067.04 3847.5,1057C 3908.49,996.347 3967.66,934.18 4025,870.5C 4079.39,810.88 4144.56,795.38 4220.5,824C 4315.39,860.249 4370.56,928.749 4386,1029.5C 4389.98,1062.29 4383.65,1092.95 4367,1121.5C 4356.75,1138.76 4344.58,1154.59 4330.5,1169C 4537.79,1207.83 4745.13,1246.33 4952.5,1284.5C 4968.2,1283.98 4981.87,1278.48 4993.5,1268C 5147.36,1118.47 5303.36,971.466 5461.5,827C 5598.46,703.251 5739.12,584.251 5883.5,470C 6048.51,341.028 6221.17,223.028 6401.5,116C 6476.45,76.2942 6555.78,49.4609 6639.5,35.5 Z"/></g>
</svg>
